<svg xmlns="http://www.w3.org/2000/svg">
  <symbol id="phone" viewBox="0 0 12 12">
    <path d="M11.9741 9.29781C11.9401 9.19554 11.7242 9.04488 11.3264 8.84619C11.2186 8.78357 11.0651 8.69846 10.8664 8.59049C10.6675 8.48252 10.487 8.38303 10.3252 8.2921C10.163 8.20121 10.0111 8.11314 9.86919 8.02804C9.8465 8.01099 9.77548 7.96135 9.65617 7.87879C9.53674 7.79646 9.43602 7.73535 9.35348 7.6955C9.27112 7.65589 9.19011 7.63595 9.11055 7.63595C8.99694 7.63595 8.85503 7.71696 8.68464 7.87879C8.51425 8.04082 8.35795 8.21682 8.21598 8.40733C8.07398 8.59774 7.92339 8.77375 7.76446 8.93569C7.60529 9.09769 7.47452 9.17861 7.37237 9.17861C7.32108 9.17861 7.25714 9.16432 7.18052 9.13611C7.10392 9.10772 7.04565 9.08339 7.00565 9.06378C6.96601 9.04375 6.89798 9.00411 6.80132 8.94425C6.70448 8.88458 6.65063 8.8519 6.63929 8.84619C5.86093 8.41428 5.19337 7.91995 4.63651 7.36332C4.07982 6.80636 3.58543 6.13887 3.15363 5.36041C3.14796 5.34904 3.11521 5.29504 3.0556 5.1985C2.9959 5.10188 2.95611 5.03379 2.93623 4.99391C2.91635 4.95417 2.8922 4.89591 2.86384 4.81922C2.83548 4.74253 2.82124 4.67865 2.82124 4.62746C2.82124 4.52525 2.90223 4.3945 3.06417 4.23539C3.22608 4.07638 3.40226 3.92575 3.59253 3.78381C3.78295 3.64187 3.95895 3.48557 4.12092 3.31518C4.28283 3.1447 4.36379 3.00273 4.36379 2.88912C4.36379 2.80963 4.34391 2.72858 4.30418 2.64622C4.26441 2.56368 4.20334 2.46297 4.12092 2.34359C4.03847 2.22428 3.98877 2.15332 3.9717 2.13049C3.88656 1.98855 3.79859 1.83658 3.70758 1.67464C3.61656 1.51272 3.51722 1.33225 3.40922 1.13341C3.30131 0.934661 3.21614 0.781198 3.15357 0.673257C2.95483 0.275613 2.80429 0.0596122 2.70199 0.0256419C2.6622 0.00859706 2.6025 0 2.52303 0C2.36954 0 2.1693 0.0283583 1.92216 0.0852542C1.67494 0.14206 1.4804 0.201643 1.33834 0.26424C1.05425 0.383494 0.753144 0.730063 0.434934 1.30383C0.145171 1.8378 0.000305176 2.36631 0.000305176 2.88897C0.000305176 3.04225 0.0102455 3.19139 0.0301262 3.3364C0.0500069 3.48127 0.0855294 3.64465 0.136724 3.8265C0.187828 4.00829 0.229052 4.14333 0.260217 4.23127C0.291411 4.31928 0.34965 4.47692 0.434904 4.70426C0.520039 4.93155 0.571233 5.07068 0.588278 5.12182C0.787115 5.67866 1.02291 6.17576 1.29559 6.61329C1.74425 7.34051 2.35652 8.09207 3.13205 8.86766C3.90761 9.64318 4.65901 10.2554 5.3863 10.7043C5.82376 10.9769 6.32105 11.2127 6.8778 11.4117C6.92896 11.4286 7.0681 11.4797 7.29529 11.5651C7.52258 11.6503 7.68028 11.7086 7.76828 11.7398C7.85631 11.7711 7.99139 11.8124 8.17303 11.8636C8.35506 11.9147 8.51828 11.9503 8.66315 11.9703C8.80811 11.9899 8.95727 12 9.11059 12C9.63321 12 10.1618 11.8551 10.6958 11.5653C11.2695 11.2473 11.616 10.9461 11.7353 10.6618C11.7981 10.5199 11.8575 10.3253 11.9143 10.0781C11.9713 9.83095 11.9996 9.63074 11.9996 9.47727C11.9998 9.39748 11.9912 9.33793 11.9741 9.29781Z"/>
  </symbol>

  <symbol id="logo" viewBox="0 0 53 38">
    <path d="M0 8.56477C0 6.10363 0.8 4.13472 2.4 2.46114C4.1 0.88601 6.1 0 8.6 0C11.2 0 13.2 0.689119 14.8 2.1658L13.6 3.93782C13 3.34715 12.2 2.95337 11.3 2.65803C10.4 2.36269 9.6 2.1658 8.7 2.1658C6.8 2.1658 5.3 2.75648 4.1 3.93782C3 5.21762 2.5 6.6943 2.5 8.56477C2.5 10.4352 3.1 12.0104 4.2 13.2902C5.4 14.5699 6.9 15.1606 8.8 15.1606C9.7 15.1606 10.7 14.9637 11.6 14.5699C12.5 14.1762 13.3 13.6839 14 12.9948L15.3 14.6684C13.5 16.4404 11.3 17.3264 8.7 17.3264C6.1 17.3264 4 16.5389 2.4 14.8653C0.8 13.0933 0 11.0259 0 8.56477Z"/>
    <path d="M18.3 17.0311V0.295334H20.6V7.58031H29.4V0.295334H31.8V16.9326H29.4V9.64767H20.6V16.9326H18.3V17.0311Z"/>
    <path d="M35.2 8.56477C35.2 6.20207 36 4.13472 37.7 2.46114C39.3 0.787565 41.4 0 43.9 0C46.4 0 48.5 0.787565 50.1 2.46114C51.8 4.13472 52.6 6.10363 52.6 8.56477C52.6 11.0259 51.8 13.0933 50.1 14.7668C48.4 16.4404 46.4 17.3264 43.9 17.3264C41.4 17.3264 39.3 16.4404 37.7 14.7668C36 13.0933 35.2 11.0259 35.2 8.56477ZM37.7 8.56477C37.7 10.4352 38.3 12.0104 39.5 13.2902C40.7 14.5699 42.2 15.1606 44 15.1606C45.8 15.1606 47.3 14.5699 48.5 13.2902C49.7 12.0104 50.3 10.4352 50.3 8.56477C50.3 6.79275 49.7 5.21762 48.5 4.03627C47.3 2.85492 45.8 2.1658 44 2.1658C42.2 2.1658 40.7 2.75648 39.5 4.03627C38.2 5.21762 37.7 6.6943 37.7 8.56477Z"/>
    <path d="M0 29.2383C0 26.7772 0.8 24.8083 2.4 23.1347C4.1 21.5596 6.1 20.6736 8.6 20.6736C11.2 20.6736 13.2 21.3627 14.8 22.8394L13.6 24.6114C13 24.0207 12.2 23.6269 11.3 23.3316C10.4 23.0363 9.5 22.8394 8.7 22.8394C6.8 22.8394 5.3 23.43 4.1 24.6114C3 25.7927 2.4 27.3679 2.4 29.1399C2.4 31.0104 3 32.5855 4.1 33.8653C5.3 35.1451 6.8 35.7357 8.7 35.7357C9.6 35.7357 10.6 35.5389 11.5 35.1451C12.4 34.7513 13.2 34.2591 13.9 33.5699L15.2 35.2435C13.4 37.0155 11.2 37.9015 8.6 37.9015C6 37.9015 3.9 37.114 2.3 35.4404C0.8 33.7668 0 31.6995 0 29.2383Z"/>
    <path d="M16.8 29.2383C16.8 26.7772 17.6 24.8083 19.2 23.1347C20.8 21.5596 22.9 20.6736 25.4 20.6736C28 20.6736 30 21.3627 31.6 22.8394L30.4 24.6114C29.8 24.0207 29 23.6269 28.1 23.3316C27.2 23.0363 26.3 22.8394 25.5 22.8394C23.6 22.8394 22.1 23.43 20.9 24.6114C19.8 25.7927 19.2 27.3679 19.2 29.1399C19.2 31.0104 19.8 32.5855 20.9 33.8653C22.1 35.1451 23.6 35.7357 25.5 35.7357C26.4 35.7357 27.4 35.5389 28.3 35.1451C29.2 34.7513 30 34.2591 30.7 33.5699L32 35.2435C30.2 37.0155 28 37.9015 25.4 37.9015C22.8 37.9015 20.7 37.114 19.1 35.4404C17.6 33.7668 16.8 31.6995 16.8 29.2383Z"/>
    <path d="M33.6 29.2383C33.6 26.8756 34.4 24.8083 36.1 23.1347C37.7 21.4611 39.8 20.6736 42.3 20.6736C44.8 20.6736 46.9 21.4611 48.5 23.1347C50.1 24.8083 51 26.7772 51 29.2383C51 31.6995 50.2 33.7668 48.5 35.4404C46.8 37.114 44.8 38 42.3 38C39.8 38 37.7 37.114 36.1 35.4404C34.4 33.7668 33.6 31.6995 33.6 29.2383ZM36 29.2383C36 31.1088 36.6 32.6839 37.8 33.9637C39 35.2435 40.5 35.8342 42.3 35.8342C44.1 35.8342 45.6 35.2435 46.8 33.9637C48 32.6839 48.6 31.1088 48.6 29.2383C48.6 27.4663 48 25.8912 46.8 24.7098C45.6 23.5285 44.1 22.8394 42.3 22.8394C40.5 22.8394 39 23.43 37.8 24.7098C36.6 25.8912 36 27.3679 36 29.2383Z"/>
  </symbol>

  <symbol id="healthy" viewBox="0 0 65 69">
    <path d="M60.03 19.665C60.72 18.975 61.41 18.285 61.755 17.595C64.17 14.49 63.825 13.11 61.41 11.04C58.995 8.97 55.2 12.075 55.2 12.075C55.2 12.075 54.855 12.42 54.51 12.765C50.715 9.315 45.885 6.555 40.365 5.175C38.295 2.07 35.19 0 31.74 0C27.945 0 24.84 2.415 22.77 5.52C18.285 6.9 14.145 9.315 10.695 12.42C10.005 12.075 8.625 10.695 6.9 10.35C4.485 10.005 2.07 11.73 1.725 14.145C1.725 15.525 3.105 17.595 4.83 19.665C1.725 24.495 0 30.015 0 36.225C0 53.82 14.49 68.31 32.43 68.31C38.64 68.31 44.85 66.585 49.68 63.48L48.645 61.065C44.16 49.68 45.195 42.435 45.54 38.985C46.575 35.19 50.37 30.015 52.44 27.255C53.82 25.53 55.89 23.805 57.96 21.735C60.72 25.875 62.1 30.705 62.1 36.225C62.1 44.16 58.65 51.405 53.475 56.925L55.545 58.65C61.41 52.785 64.86 44.85 64.86 36.225C64.86 30.015 63.135 24.495 60.03 19.665ZM31.74 2.76C36.225 2.76 39.675 6.9 39.675 12.075C39.675 17.25 36.225 21.39 31.74 21.39C27.255 21.39 23.805 17.595 23.805 12.075C23.805 6.555 27.255 2.76 31.74 2.76ZM31.74 24.15C37.605 24.15 42.435 18.63 42.435 12.075C42.435 10.695 42.09 9.66 41.745 8.28C45.885 9.66 49.335 11.73 52.44 14.49C49.68 16.905 45.54 20.01 43.47 21.39C40.365 23.805 35.19 26.22 31.05 26.22C26.91 26.22 24.84 24.495 21.735 23.115C18.975 21.735 14.49 16.56 12.42 14.49C15.18 12.075 18.285 10.35 21.39 8.97C21.39 10.005 21.045 11.04 21.045 12.075C21.045 18.975 25.875 24.15 31.74 24.15ZM2.76 36.225C2.76 31.05 4.14 26.22 6.555 21.735C7.245 22.425 7.59 22.77 7.59 22.77C7.59 22.77 16.215 32.775 17.94 35.19C19.665 37.605 17.595 39.33 16.215 45.54C15.18 50.37 15.18 56.925 15.18 60.03C7.59 54.51 2.76 45.885 2.76 36.225ZM56.235 19.665C54.855 21.045 50.025 25.185 45.885 31.74C41.745 38.295 42.435 43.47 42.78 47.265C43.125 51.06 44.16 54.51 44.505 55.89C44.85 56.925 46.23 60.72 46.575 61.755C42.435 63.825 37.605 65.205 32.775 65.205C27.255 65.205 22.425 63.825 17.94 61.41C17.94 49.68 18.63 47.955 18.975 46.23C18.975 44.505 20.01 41.055 21.045 38.295C21.735 35.88 20.7 33.81 19.665 32.775C18.63 31.74 8.625 19.665 6.9 17.25C4.83 14.835 4.485 13.8 6.21 13.11C7.935 12.075 12.42 17.595 14.49 20.01C16.215 22.425 24.15 28.98 31.395 28.635C38.64 28.29 43.815 24.495 45.885 23.115C47.61 21.735 56.58 14.49 57.96 13.455C59.34 12.42 61.065 13.455 60.72 14.49C60.375 15.525 57.615 18.285 56.235 19.665Z"/>
  </symbol>

  <symbol id="tasty" viewBox="0 0 64 64">
    <path d="M32 0C14.4314 0 0 14.4314 0 32C0 49.5686 14.4314 64 32 64C49.5686 64 64 49.5686 64 32C64 14.4314 49.5686 0 32 0ZM32 61.4902C15.6863 61.4902 2.5098 48.3137 2.5098 32C2.5098 15.6863 15.6863 2.5098 32 2.5098C48.3137 2.5098 61.4902 15.6863 61.4902 32C61.4902 48.3137 48.3137 61.4902 32 61.4902Z"/>
    <path d="M32 48.6275C21.0196 48.6275 14.4314 38.902 14.4314 38.902L12.2353 40.4706C21.0196 51.7647 32 51.451 32 51.451C32 51.451 42.9804 52.0785 51.7647 40.4706L49.5686 38.902C49.5686 38.902 42.9804 48.6275 32 48.6275Z"/>
    <path d="M21.3333 35.451C28.8627 32 30.1176 27.6078 30.1176 25.4118C30.1176 22.902 28.549 20.0784 25.7255 20.0784C22.5882 20.0784 21.3333 21.6471 21.3333 21.6471C21.3333 21.6471 20.0784 20.0784 16.9412 20.0784C14.1176 20.0784 12.549 23.2157 12.549 25.4118C12.549 27.6078 13.8039 32 21.3333 35.451ZM21.3333 24.7843C22.902 22.2745 27.2941 21.9608 27.6078 25.098C27.6078 29.4902 21.3333 32.6275 21.3333 32.6275C21.3333 32.6275 15.0588 29.4902 15.0588 25.098C15.3725 21.9608 19.7647 22.2745 21.3333 24.7843Z"/>
    <path d="M42.6667 35.451C50.1961 32 51.451 27.6078 51.451 25.7255C51.451 23.2157 49.8824 20.3922 47.0588 20.3922C43.9216 20.3922 42.6667 21.9608 42.6667 21.9608C42.6667 21.9608 41.4118 20.3922 38.2745 20.3922C35.451 20.3922 33.8824 23.5294 33.8824 25.7255C33.8824 27.6078 35.1373 32 42.6667 35.451ZM42.6667 24.7843C44.2353 22.2745 48.6274 21.9608 48.9412 25.098C48.9412 29.4902 42.6667 32.6274 42.6667 32.6274C42.6667 32.6274 36.3922 29.4902 36.3922 25.098C36.7059 21.9608 41.098 22.2745 42.6667 24.7843Z"/>
  </symbol>

  <symbol id="nutritive" viewBox="0 0 64 54">
    <path d="M49.9372 8.44973C43.9103 8.44973 36.1614 12.7547 36.4484 21.6515C36.4484 21.6515 24.6816 17.9206 21.2377 30.2614C21.2377 30.2614 19.2287 25.9565 16.6457 23.9475C13.7758 21.9385 10.3318 16.7726 10.0448 14.1896C10.3318 12.7547 10.6188 12.7547 11.1928 12.4677C11.4798 12.4677 11.4798 14.7636 14.0628 15.0506C16.3587 14.7636 16.9327 14.1896 17.7937 13.0417L20.3767 10.1717C20.3767 10.1717 22.9596 6.72776 20.6637 5.00578C18.6547 2.99681 14.9238 -0.734128 10.3318 0.126858C7.74888 0.700849 5.73991 2.70982 5.73991 2.70982L2.29596 5.86677C2.29596 5.86677 0 8.16273 0 12.7547C0 16.7726 0.860987 23.3735 0.860987 23.3735C0.860987 23.3735 1.72197 28.5394 2.00897 30.2614C2.29596 31.9834 4.59193 42.0282 10.0448 47.4811C13.4888 51.4991 15.4978 53.221 17.2197 53.508C20.0897 53.508 21.5247 51.7861 23.8206 51.7861C26.1166 51.7861 28.4126 53.508 33.2915 53.508C38.1704 53.508 49.0762 50.6381 53.6682 36.5753C57.9731 34.8533 64 31.6964 64 22.2255C64 12.7547 55.6771 8.44973 49.9372 8.44973ZM51.9462 34.8533C48.7892 47.4811 38.7444 50.9251 33.8655 51.4991C29.2735 51.4991 26.6906 49.7771 23.2466 49.7771C21.2377 49.7771 18.3677 51.4991 17.5067 51.4991C16.6457 51.4991 14.3498 49.4901 11.4798 46.3331C8.60987 43.1762 7.46188 40.3062 6.3139 38.0103C5.16592 35.7143 3.15695 26.5304 3.15695 26.5304C3.15695 26.5304 2.29596 17.3466 2.29596 13.3287C2.29596 9.59771 4.01794 7.30175 4.01794 7.30175C4.01794 7.30175 6.3139 5.29278 8.60987 3.28381C11.1928 1.27484 14.3498 2.70982 14.3498 2.70982C14.3498 2.70982 17.5067 4.71879 18.6547 5.86677C20.0897 7.01475 18.6547 8.16273 18.6547 8.16273C18.6547 8.16273 15.4978 12.1807 14.3498 12.4677C12.9148 12.7547 12.6278 9.31072 12.6278 9.31072C11.1928 9.88471 8.89686 10.4587 8.03587 13.0417C7.17489 16.1986 11.7668 22.7995 15.2108 25.9565C18.3677 29.1134 20.3767 34.2793 20.3767 34.2793L22.9596 33.4183C22.9596 33.4183 22.6726 27.3914 27.8386 24.2345C33.5785 21.0775 38.7444 25.3825 38.7444 25.3825C37.0224 11.0327 49.6502 10.7457 50.5112 10.7457C51.3722 10.7457 61.417 11.6067 62.278 21.6515C61.704 33.1313 51.9462 34.8533 51.9462 34.8533Z"/>
  </symbol>

  <symbol id="f" viewBox="0 0 20 20">
    <path d="M20 18.9101C20 19.5095 19.5095 20 18.9101 20H13.7875V12.2616H16.4033L16.7847 9.26431H13.7875V7.35695C13.7875 6.48501 14.0054 5.88556 15.2589 5.88556H16.8392V3.16076C16.5668 3.10627 15.6403 3.05177 14.4959 3.05177C12.2071 3.05177 10.6267 4.46866 10.6267 7.02997V9.26431H8.0109V12.2616H10.6267V20H1.08992C0.490463 20 0 19.5095 0 18.9101V1.08992C0 0.490463 0.490463 0 1.08992 0H18.9101C19.5095 0 20 0.490463 20 1.08992V18.9101Z"/>
  </symbol>

  <symbol id="vk" viewBox="0 0 20 20">
    <path d="M19.891 14.6049C19.891 14.5504 19.8365 14.4959 19.8365 14.4959C19.5095 13.8965 18.8011 13.079 17.8202 12.2071C17.3842 11.7711 17.1117 11.4986 17.0027 11.3351C16.7847 11.0627 16.7302 10.7902 16.8392 10.5177C16.9482 10.2997 17.2207 9.86376 17.7657 9.15531C18.0381 8.77384 18.2561 8.50136 18.4196 8.28338C19.6185 6.703 20.1635 5.66757 20 5.23161L19.9455 5.12261C19.891 4.95913 19.782 4.90463 19.6185 4.85013C19.455 4.79564 19.2371 4.79564 18.9646 4.85013H15.9673C15.9128 4.85013 15.8583 4.85013 15.7493 4.85013C15.6403 4.85013 15.6403 4.90463 15.6403 4.90463H15.5858L15.5313 4.95913C15.4768 4.95913 15.4768 5.01362 15.4223 5.06812C15.3678 5.12261 15.3678 5.17711 15.3134 5.23161C14.9864 6.04904 14.6049 6.86648 14.2234 7.57493C13.951 8.0109 13.733 8.39237 13.515 8.71934C13.297 9.04632 13.1335 9.2643 12.97 9.42779C12.8065 9.59128 12.6975 9.70027 12.5886 9.80926C12.4796 9.91825 12.3706 9.91825 12.3161 9.91825C12.2616 9.91825 12.2071 9.86376 12.1526 9.86376C12.0436 9.80926 11.9891 9.70027 11.9346 9.59128C11.8801 9.48229 11.8256 9.3733 11.8256 9.20981C11.8256 9.04632 11.7711 8.88283 11.7711 8.77384C11.7711 8.66485 11.7711 8.50136 11.7711 8.28338C11.7711 8.06539 11.7711 7.90191 11.7711 7.84741C11.7711 7.57493 11.7711 7.30245 11.7711 6.97548C11.7711 6.6485 11.7711 6.43052 11.7711 6.26703C11.7711 6.10354 11.7711 5.88556 11.7711 5.66757C11.7711 5.44959 11.7711 5.2861 11.7166 5.17711C11.7166 5.06812 11.6621 4.95913 11.6076 4.85013C11.5531 4.74114 11.4986 4.63215 11.3896 4.57766C11.2807 4.52316 11.1717 4.46866 11.0627 4.41417C10.6812 4.30518 10.2452 4.30518 9.64578 4.30518C8.33788 4.30518 7.52044 4.35967 7.13896 4.57766C6.97548 4.63215 6.86648 4.74114 6.75749 4.90463C6.6485 5.06812 6.59401 5.12261 6.703 5.17711C7.13896 5.23161 7.41144 5.39509 7.57493 5.61308L7.62943 5.72207C7.68392 5.83106 7.73842 5.99455 7.79292 6.21253C7.84741 6.43052 7.84741 6.703 7.90191 6.97548C7.9564 7.46594 7.9564 7.90191 7.90191 8.28338C7.84741 8.66485 7.84741 8.93733 7.79292 9.10082C7.73842 9.3188 7.73842 9.48229 7.62943 9.59128C7.57493 9.70027 7.52044 9.80926 7.52044 9.80926C7.52044 9.86376 7.46594 9.86376 7.46594 9.86376C7.35695 9.91825 7.30245 9.91825 7.19346 9.91825C7.08447 9.91825 6.97548 9.86376 6.86649 9.75477C6.703 9.64577 6.59401 9.53678 6.43052 9.3733C6.26703 9.20981 6.10354 8.99182 5.94005 8.66485C5.77657 8.33787 5.55858 8.0109 5.3406 7.57493L5.17711 7.24795C5.06812 7.02997 4.90463 6.75749 4.74114 6.37602C4.57766 5.99455 4.41417 5.66757 4.25068 5.2861C4.19619 5.17711 4.08719 5.06812 3.9782 4.95913H3.92371C3.86921 4.90463 3.81471 4.90463 3.76022 4.85013C3.70572 4.85013 3.59673 4.79564 3.54223 4.79564H0.708447C0.381471 4.79564 0.163488 4.90463 0.0544959 5.01362V5.06812C0 5.12261 0 5.17711 0 5.23161C0 5.2861 0 5.39509 0.0544959 5.50409C0.490463 6.48501 0.92643 7.41144 1.41689 8.33787C1.90736 9.2643 2.34332 9.97275 2.6703 10.5177C3.05177 11.0627 3.37875 11.6076 3.76022 12.0981C4.14169 12.5886 4.35967 12.9155 4.52316 13.0245C4.63215 13.188 4.74114 13.2425 4.79564 13.3515L5.06812 13.624C5.23161 13.7875 5.50409 14.0054 5.77657 14.2234C6.10354 14.4414 6.43052 14.6594 6.86649 14.9319C7.24796 15.1499 7.73842 15.3678 8.22888 15.4768C8.77384 15.6403 9.26431 15.6948 9.75477 15.6403H10.9537C11.1717 15.6403 11.3896 15.5313 11.4986 15.4223L11.5531 15.3678C11.6076 15.3133 11.6076 15.2589 11.6076 15.1499C11.6076 15.0409 11.6621 14.9864 11.6621 14.8774C11.6621 14.6049 11.6621 14.3324 11.7166 14.0599C11.7711 13.842 11.8256 13.624 11.8801 13.515C11.9346 13.406 12.0436 13.297 12.0981 13.188C12.2071 13.079 12.2616 13.079 12.2616 13.0245C12.3161 13.0245 12.3161 12.97 12.3706 12.97C12.5341 12.9155 12.752 12.97 12.97 13.1335C13.188 13.297 13.406 13.515 13.624 13.733C13.842 13.951 14.0599 14.2234 14.3324 14.5504C14.6049 14.8229 14.8774 15.0954 15.0409 15.2044L15.2589 15.3133C15.4223 15.4223 15.5858 15.4768 15.8038 15.5313C16.0218 15.5858 16.2398 15.6403 16.4033 15.5858L19.0736 15.5313C19.346 15.5313 19.564 15.4768 19.673 15.4223C19.8365 15.3133 19.891 15.2589 19.9455 15.1499C20 15.0409 20 14.9319 19.9455 14.7684C19.9455 14.7684 19.9455 14.6594 19.891 14.6049Z"/>
  </symbol>

  <symbol id="in" viewBox="0 0 20 20">
    <path d="M17.6022 0H2.39782C1.08992 0 0 1.03542 0 2.34332V17.6567C0 18.9646 1.08992 20 2.39782 20H17.6022C18.9101 20 20 18.9646 20 17.6567V2.34332C20 1.03542 18.9101 0 17.6022 0ZM14.3869 3.10627C14.3869 2.77929 14.6594 2.50681 14.9864 2.50681H16.8937C17.2207 2.50681 17.4932 2.77929 17.4932 3.10627V4.95913C17.4932 5.2861 17.2207 5.55858 16.8937 5.55858H15.0409C14.7139 5.55858 14.4414 5.2861 14.4414 4.95913L14.3869 3.10627ZM10.0272 6.15804C12.1526 6.15804 13.8965 7.84741 13.8965 9.97275C13.8965 12.0981 12.1526 13.7875 10.0272 13.7875C7.90191 13.7875 6.15804 12.0981 6.15804 9.97275C6.15804 7.90191 7.90191 6.15804 10.0272 6.15804ZM18.0926 17.4932C18.0926 17.8202 17.8202 18.0926 17.4932 18.0926H2.50681C2.17984 18.0926 1.90736 17.8202 1.90736 17.4932V8.11989H4.35967C4.0327 8.61035 3.92371 9.48229 3.92371 10.0272C3.92371 13.3515 6.6485 16.0763 10.0272 16.0763C13.406 16.0763 16.1308 13.3515 16.1308 10.0272C16.1308 9.48229 16.0763 8.61035 15.6403 8.11989H18.1471L18.0926 17.4932Z"/>
  </symbol>

  <symbol id="tv" viewBox="0 0 20 20">
    <path d="M19.455 2.01613C18.6376 2.5066 17.7657 2.83357 16.8392 3.05155C16.0763 2.23412 15.0409 1.74365 13.842 1.74365C11.5531 1.74365 9.75477 3.65101 9.75477 5.93984C9.75477 6.26681 9.80926 6.59379 9.86376 6.92076C6.43052 6.70278 3.43324 5.01341 1.41689 2.4521C1.08992 3.05155 0.871935 3.8145 0.871935 4.57744C0.871935 6.04883 1.58038 7.30224 2.7248 8.06518C2.07084 8.06518 1.41689 7.84719 0.871935 7.52022V7.62921C0.871935 9.64556 2.28883 11.3894 4.14169 11.7709C3.81471 11.8799 3.43324 11.9344 3.05177 11.9344C2.77929 11.9344 2.50681 11.9344 2.28883 11.8799C2.83379 13.5693 4.30518 14.7682 6.10354 14.8227C4.68665 15.9671 2.94278 16.621 0.980926 16.621C0.653951 16.621 0.326975 16.621 0 16.5665C1.79837 17.7654 3.9782 18.4739 6.26703 18.4739C13.842 18.4739 17.9292 12.0434 17.9292 6.4848C17.9292 6.32131 17.9292 6.10332 17.9292 5.93984C18.7466 5.34038 19.455 4.63194 20 3.76C19.2916 4.08698 18.4741 4.30496 17.6567 4.41395C18.4741 3.8145 19.1281 2.99706 19.455 2.01613Z"/>
  </symbol>

  <symbol id="leaf" viewBox="0 0 39 37">
    <path d="M5.68662 22.4709C5.68662 22.9568 5.92954 23.4426 5.92954 23.9284C5.92954 25.8718 6.17246 29.0297 6.17246 29.0297H7.38704C7.38704 29.0297 7.38704 23.9284 6.65829 21.2563C5.92954 18.3413 5.68662 12.9971 7.38704 9.11043L6.17246 8.6246C6.17246 8.6246 4.71495 11.5396 4.71495 16.1551C4.71495 19.0701 4.95787 20.2847 5.20078 21.4992C4.22911 20.7705 1.55701 18.3413 1.79993 13.24C2.28577 7.41001 7.38704 2.06581 7.38704 2.06581C7.38704 2.06581 16.375 10.5679 8.35872 20.0417L9.33039 20.7705C9.33039 20.7705 12.9742 16.6409 12.9742 12.0254C12.9742 7.41001 11.0308 3.52332 7.38704 0.365387C7.38704 0.365387 1.07118 6.43834 0.585343 13.7259C0.342425 20.5276 5.4437 22.9568 5.4437 22.9568L5.68662 22.4709Z"/>
    <path d="M18.3183 16.1551C9.33038 18.8272 9.81622 27.5722 10.0591 29.5156C6.9012 32.6735 5.4437 35.5885 5.4437 35.5885L6.41537 36.0743C15.6462 20.7705 29.9784 23.6855 29.9784 23.6855V22.4709C21.2334 21.4993 15.1604 24.9001 11.0308 28.301C10.7879 25.143 12.2454 17.6126 21.4763 16.8838C32.1647 16.6409 37.2659 22.9568 37.2659 22.9568C31.6788 31.9447 25.363 33.1593 21.4763 33.6452C17.3467 34.3739 12.2454 31.4589 12.2454 31.4589L11.7596 32.4306C11.7596 32.4306 16.1321 35.3456 21.7192 34.8597C33.8651 33.4022 38.4805 22.7138 38.4805 22.7138C37.2659 20.2847 28.278 13.7259 18.3183 16.1551Z"/>
  </symbol>

  <symbol id="truck" viewBox="0 0 40 32">
    <path d="M6.84767 12.6328L9.01168 10.9016H9.22808C9.87729 10.9016 10.3101 10.4688 10.3101 9.81963C10.3101 9.38683 10.0937 9.17043 9.87729 8.95403V4.40961H8.79528V8.95403C8.36248 9.17043 8.14608 9.38683 8.14608 9.81963V10.036L5.98207 11.7672L6.84767 12.6328Z"/>
    <path d="M39.7406 24.3185V17.3936C39.7406 15.2296 38.875 14.364 38.875 14.364C38.875 14.364 36.711 11.5508 35.4126 9.81961C34.1142 8.08841 32.383 8.08841 32.383 8.08841H25.0254V7.0064C25.0254 5.49159 23.9434 4.40959 22.4285 4.40959H16.1529C14.6381 2.24558 12.0413 0.730774 9.22809 0.730774C4.46727 0.730774 0.788452 4.62599 0.788452 9.38681C0.788452 11.3344 1.43765 13.0656 2.51966 14.5804V24.1021C2.51966 25.6169 3.60166 26.6989 5.11647 26.6989H6.19848V26.9153C6.19848 29.5121 8.36249 31.6761 10.9593 31.6761C13.5561 31.6761 15.7201 29.5121 15.7201 26.9153C15.7201 26.6989 15.7201 26.6989 15.7201 26.6989H22.2121H22.4285C23.0777 26.6989 24.5926 26.6989 26.5402 26.6989V26.9153C26.5402 29.5121 28.7042 31.6761 31.301 31.6761C33.8978 31.6761 36.0618 29.5121 36.0618 26.9153C36.0618 26.6989 36.0618 26.6989 36.0618 26.6989C36.2782 26.6989 36.4946 26.6989 36.4946 26.6989C40.1734 26.9153 39.7406 24.3185 39.7406 24.3185ZM38.6586 16.7444C38.6586 16.7444 38.6586 16.9608 38.6586 17.3936H30.219C29.7862 17.3936 29.3534 16.9608 29.3534 16.528V13.0656C29.3534 12.6328 29.7862 12.2 30.219 12.2H35.8454C36.4946 12.8492 37.1438 13.7148 37.5766 14.364C38.6586 15.6624 38.6586 16.7444 38.6586 16.7444ZM9.22809 2.02918C13.3397 2.02918 16.8021 5.27519 16.8021 9.60321C16.8021 13.9312 13.3397 16.9608 9.22809 16.9608C5.11647 16.9608 1.87046 13.4984 1.87046 9.38681C1.87046 5.27519 5.11647 2.02918 9.22809 2.02918ZM10.7429 30.5941C8.79529 30.5941 7.28048 29.0793 7.28048 27.1317C7.28048 25.1841 8.79529 23.6693 10.7429 23.6693C12.6905 23.6693 14.2053 25.1841 14.2053 27.1317C14.2053 29.0793 12.6905 30.5941 10.7429 30.5941ZM15.0709 25.6169C14.4217 23.8857 12.6905 22.3709 10.7429 22.3709C8.79529 22.3709 7.06408 23.6693 6.41488 25.6169H4.90007C4.25087 25.6169 3.60166 24.9677 3.60166 24.3185V15.6624C5.11647 16.9608 7.06408 17.8264 9.22809 17.8264C13.9889 17.8264 17.6677 13.9312 17.6677 9.38681C17.6677 8.08841 17.2349 6.79 16.8021 5.708H22.4285C23.0777 5.708 23.7269 6.3572 23.7269 7.0064V24.3185C23.7269 24.9677 23.0777 25.6169 22.4285 25.6169H15.0709ZM31.0846 30.5941C29.137 30.5941 27.6222 29.0793 27.6222 27.1317C27.6222 25.1841 29.137 23.6693 31.0846 23.6693C33.0322 23.6693 34.547 25.1841 34.547 27.1317C34.547 29.0793 33.0322 30.5941 31.0846 30.5941ZM36.4946 25.8333H35.629C34.9798 23.8857 33.2486 22.5873 31.301 22.5873C29.137 22.5873 27.4058 23.8857 26.973 25.8333H24.809C25.2418 25.4005 25.4582 24.9677 25.4582 24.3185V8.95401C25.4582 8.95401 30.219 8.95401 32.1666 8.95401C34.1142 8.95401 34.9798 10.2524 34.9798 10.2524C34.9798 10.2524 34.7634 10.6852 35.1962 11.118H30.219C29.137 11.118 28.4878 11.9836 28.4878 12.8492V16.3116C28.4878 17.3936 29.3534 18.0428 30.219 18.0428H38.875C38.875 19.7741 38.875 22.3709 38.875 23.6693C38.6586 26.0497 36.4946 25.8333 36.4946 25.8333Z"/>
  </symbol>

  <symbol id="measure" viewBox="0 0 37 37">
    <path d="M10.5679 7.16711C10.5679 7.65294 11.5396 8.13878 12.9971 8.13878C14.4546 8.13878 15.4263 7.65294 15.4263 7.16711C15.4263 6.68127 14.4546 6.19543 12.9971 6.19543C11.7825 6.19543 10.5679 6.43835 10.5679 7.16711Z"/>
    <path d="M36.8031 16.1551C36.8031 13.7259 34.8597 11.7825 32.4306 11.7825H31.4589H10.0821C10.0821 11.7825 4.25207 12.0254 1.57998 7.41001C1.82289 4.00916 4.49499 1.57998 7.89584 1.57998H17.6126C21.2563 1.57998 23.9284 4.49499 23.9284 7.89584V9.11043H25.143V8.13876C25.143 3.76624 21.7422 0.365387 17.3696 0.365387H8.13876C3.76624 0.365387 0.365387 3.76624 0.365387 8.13876V11.2967V11.7825V19.5559C0.365387 23.9284 3.76624 27.3293 8.13876 27.3293H9.83919V26.1147H7.89584C4.25207 26.1147 1.57998 23.1997 1.57998 19.7988V11.7825V11.2967V9.59627C2.30873 10.5679 4.73791 12.9971 9.83919 12.9971C17.1267 12.9971 31.216 12.9971 31.216 12.9971H32.4306C34.131 12.9971 35.3456 14.2117 35.3456 15.9121V17.3696V17.8555C35.3456 19.5559 34.131 20.7705 32.4306 20.7705H32.1876H16.8838C14.4546 20.7705 12.5113 22.7138 12.5113 25.143V31.7018C12.5113 34.131 14.4546 36.0743 16.8838 36.0743H32.4306C34.8597 36.0743 36.8031 34.131 36.8031 31.7018V25.143C36.8031 25.143 36.8031 19.313 36.8031 17.6126C36.8031 17.6126 36.8031 17.6126 36.8031 17.3696V16.1551ZM35.3456 32.1876C35.3456 33.8881 34.131 35.1027 32.4306 35.1027H16.6409C14.9405 35.1027 13.7259 33.8881 13.7259 32.1876V25.143C13.7259 23.4426 14.9405 22.228 16.6409 22.228H21.2563V26.3576H22.4709V22.228H28.058H30.2443V26.3576H31.4589V22.228H32.4306C33.6451 22.228 34.8597 21.7422 35.5885 21.0134V32.1876H35.3456Z"/>
  </symbol>
</svg>